<svg id="Graph" xmlns="http://www.w3.org/2000/svg" width="956.07" height="232.489" viewBox="0 0 956.07 232.489">
  <text id="_The_way_to_get_started_is_to_quit_talking_and_begin_doing._-Walt_Disney_" data-name="&quot;The way to get started is to quit talking and begin doing.&quot; -Walt Disney    " transform="translate(0 226.489)" fill="#030303" font-size="25" font-family="Helvetica-Oblique, Helvetica" font-style="oblique"><tspan x="0" y="0" xml:space="preserve">&quot;The Way To Get Started Is To Quit Talking And Begin Doing.&quot; -Walt Disney    </tspan></text>
  <g id="Graph-2" data-name="Graph" transform="translate(0 0)">
    <path id="Path_388" data-name="Path 388" d="M69.23,450.1H955.917s-12.279-76.147-63.967-65.046c-28.443,6.1-51.916,41.139-118.967-6.777-42.264-30.173-65.509-16.857-91.839-5.517-26.329,11.306-24.273,5.381-59.969-32.046-35.639-37.427-45.52-85.1-86.87-85.1-59.684,0-75.961,109.249-114.684,110.1-38.78.885-47.461-12.158-86.07-33.068-26.558-14.371-36.324-1.566-59.569,16.721s-41.065,55.612-64.31,31.229-51.459-46.043-80.359-7.833C114.521,392.137,111.78,410.664,69.23,450.1Z" transform="translate(-16.837 -255.61)" fill="#41ead4" opacity="0.2"/>
    <path id="Path_389" data-name="Path 389" d="M977.313,434.42H58.37s4.481-58.127,49.845-47.6c27.439,6.356,29.154,23.682,110.809-13.43,30.15-13.7,64.56-10.423,90.119.923,25.5,11.345,55.045,3.964,89.62-33.591,34.521-37.556,36.236-71.455,78.058-77.913,56.041-8.646,70.424,115.23,107.932,116.118,37.563.889,58.751-19.307,80.105-36.257,33.857-26.859,41.712-2.973,64.228,15.378s23.014,45.108,45.529,20.64,64.56-26.21,79.607-6.971c14.992,19.2,31.533,17.7,57.092,9.842C936.818,373.661,930.732,391.636,977.313,434.42Z" transform="translate(-38.232 -239.931)" fill="#41ead4" opacity="0.5"/>
    <path id="Path_390" data-name="Path 390" d="M51.59,395.467h956.07s-49.407-30.627-68.3-38.724-33.295,20.473-112.3-17.786c-29.173-14.136-48.978-11.05-73.655.664s-55.669,20.872-89.071-17.852S590.781,263.8,569,287.193c-21.786,23.427-43.679,72.238-80.025,73.134s-56.687-23.427-84.254-36.036c-27.621-12.609-37.791-2.688-59.577,16.226s-45.017,40.515-66.857,15.3c-21.786-25.219-62.468-27.01-77.027-7.2-14.506,19.81-24.677,30.627-49.407,22.531S96.607,351.334,51.59,395.467Z" transform="translate(-51.59 -200.977)" fill="#41ead4"/>
  </g>
</svg>
