<svg xmlns="http://www.w3.org/2000/svg" xmlns:xlink="http://www.w3.org/1999/xlink" width="270.155" height="150.908" viewBox="0 0 270.155 150.908">
  <defs>
    <linearGradient id="linear-gradient" x1="1" y1="0.001" x2="0.047" y2="0.723" gradientUnits="objectBoundingBox">
      <stop offset="0" stop-color="#41ead4"/>
      <stop offset="1" stop-color="#545454"/>
    </linearGradient>
  </defs>
  <g id="Top_right_Arrow" data-name="Top right Arrow" transform="translate(27.252 -7.562) rotate(22)">
    <g id="Group_152" data-name="Group 152" transform="translate(0 8.156)">
      <path id="Path_499" data-name="Path 499" d="M60.948,238.513q28.238-23.547,56.476-47.073c-2.616-2.208-5.212-4.415-7.829-6.623q-.675,13.429-1.369,26.858c-.347,7.011-3.107,18.4-1.124,25.264.879,3.025,6.561,9.341,9.77,10.159,5.723,1.472,14.574-8.646,18.273-11.917,5.764-5.11,11.283-10.486,16.822-15.841,11.058-10.711,22.157-21.278,34.85-30.067-2.616-2.208-5.212-4.415-7.829-6.623q-3.955,12.387-7.931,24.773c-2.289,7.134-6.847,16.025-7.134,23.629-.225,6.214,4.8,10.486,9.709,13.654,9.729,6.275,25-13.736,31.151-20.317,10.506-11.2,20.44-22.791,32.459-32.438-2.616-2.207-5.212-4.415-7.829-6.623-3.107,8.135-6.091,16.332-8.81,24.589-1.594,4.824-7.849,16.6-5.846,21.564,1.308,3.27,7.869,8.4,11.242,8.83,5.846.756,11.876-6.725,15.534-10.22,5.662-5.457,10.915-11.324,16.454-16.9,10.813-10.895,22.729-20.317,38.121-23.322-2.044.409-5.662-7.052-7.828-6.623-15.984,3.127-28.166,13.2-39.306,24.508-6.377,6.479-22.831,30.026-33.235,25.2,2.616,2.208,5.212,4.415,7.829,6.623-3.352-5.151,2.575-15.964,4.313-21.258q4.354-13.306,9.4-26.368c.143-.409-7.808-6.643-7.829-6.623-11.16,8.953-20.542,19.582-30.21,30.026-5.5,5.928-24.2,29.74-33.092,22.934,2.555,2.167,5.11,4.354,7.685,6.52-4.946-7.338,1-18.008,3.393-25.468q4.814-15.023,9.648-30.067c.123-.409-7.747-6.684-7.829-6.623-12.693,8.789-23.792,19.357-34.85,30.067-5.539,5.355-11.038,10.731-16.822,15.841-4.926,4.354-11.426,12-18.273,11.917,2.616,2.208,5.212,4.415,7.829,6.623-4.844-5.008-1.349-18.519-1.022-24.978q.767-15.361,1.553-30.7c.041-.736-7.89-6.582-7.829-6.623Q81.4,208.343,53.14,231.87c.388-.327,7.3,7.072,7.808,6.643Z" transform="translate(-53.14 -182.65)" fill="url(#linear-gradient)"/>
    </g>
    <g id="Group_153" data-name="Group 153" transform="translate(219.803)">
      <path id="Path_500" data-name="Path 500" d="M161.2,179.519c-.429-.061-.593.123-.491.593-.061.45,8.687,3.332,9.607,3.6,4.395,1.247,10.976-.245,15.6-.511,5.641-.307,11.3-.634,16.945-.94-3.209-1.206-6.4-2.391-9.607-3.6a134.489,134.489,0,0,1-29.229,31.171c1.369-1.063,8.135,4.742,9.607,3.6a133.626,133.626,0,0,0,29.229-31.171c-.327.491-8.483-3.659-9.607-3.6-5.641.307-11.3.634-16.945.94-4.763.266-11.078,1.8-15.6.511,3.209,1.206,6.4,2.391,9.607,3.6-.1-.47.041-.654.491-.593-2.9.47-6.623-4.068-9.607-3.6Z" transform="translate(-160.676 -178.66)" fill="url(#linear-gradient)"/>
    </g>
  </g>
</svg>
