<svg xmlns="http://www.w3.org/2000/svg" xmlns:xlink="http://www.w3.org/1999/xlink" width="148.632" height="143.341" viewBox="0 0 148.632 143.341">
  <defs>
    <linearGradient id="linear-gradient" x1="0.319" y1="1" x2="0.5" y2="-1.163" gradientUnits="objectBoundingBox">
      <stop offset="0" stop-color="#41ead4"/>
      <stop offset="1" stop-color="#545454"/>
    </linearGradient>
  </defs>
  <g id="Bottom_right_arrow" data-name="Bottom right arrow" transform="matrix(0.208, 0.978, -0.978, 0.208, 123.586, 0)">
    <g id="Group_216" data-name="Group 216">
      <path id="Path_554" data-name="Path 554" d="M317.69,192.054c.71-20.57,21.112-38.745,41.131-39.709-6.418,0-12.864-.028-19.282-.028,31.955,3.883,39.438,62.757,4.861,67.907h19.637c-11.689-.964-12.4-11.868-7.565-20.846a28.63,28.63,0,0,1,24.908-15.09c-6.091-.028-12.208-.028-18.3-.055,52.274,6.141,43.371,87.568-7.456,89.055,6.445,0,12.864.027,19.282.027-11.416-1.239-20.019-6.2-25.4-16.6-1.475-2.836-18.3,2.588-19.637,0,13.383,25.83,60.3,20.9,77.1,1.817,25.318-28.749,6.5-74.213-31.436-74.35-13.246-.055-26.11-.771-35.587,10.574-4.889,5.865-10.187,18.67-1.748,24.1,3.523,2.258,9.4,1.515,13.437,1.515,13.82.055,25.181-1.074,31.818-15.558,6.855-14.925,3.031-35.5-9.532-46.29-9.422-8.068-24.225-7.077-35.969-6.086-19.555,1.652-39.165,19.5-39.875,39.681-.027-.138,19.61.33,19.61-.055Z" transform="translate(-298.08 -151.772)" fill="url(#linear-gradient)"/>
    </g>
    <path id="Path_555" data-name="Path 555" d="M306.464,218.3c-.572-.511.736-13.817.859-16.761.286-7.031.429-14.083.245-21.115,4.5,3.884,8.687,7.829,14.083,10.629,6.152,3.189,13.695,3.618,19.275,7.788-4.333,4.047-10.22,7.134-15.105,10.67-5.09,3.659-14.042,7.277-17.66,12.611C307.036,220.993,307.792,220.585,306.464,218.3Z" transform="translate(-280.289 -90.237)" fill="url(#linear-gradient)"/>
  </g>
</svg>
