<svg xmlns="http://www.w3.org/2000/svg" xmlns:xlink="http://www.w3.org/1999/xlink" width="165.517" height="167.343" viewBox="0 0 165.517 167.343">
  <defs>
    <linearGradient id="linear-gradient" x1="0.5" x2="0.5" y2="1" gradientUnits="objectBoundingBox">
      <stop offset="0" stop-color="#41ead4"/>
      <stop offset="1" stop-color="#545454"/>
    </linearGradient>
  </defs>
  <g id="top_left_Arrow" data-name="top left Arrow" transform="matrix(-0.719, -0.695, 0.695, -0.719, 58.057, 167.343)">
    <path id="Path_503" data-name="Path 503" d="M234.931,216.767c-7.522-15.739-17.476-31.7-15.126-49.894a76.137,76.137,0,0,1,19.99-42.249c.511-.552-.123-8.851,0-8.83a72.5,72.5,0,0,1-26.572-8.278v8.83c8.728-4.272,17.517-8.38,26.449-12.2,4.456-1.921,8.953-3.761,13.47-5.56,3.843-1.533,9.484-4.946,13.613-5.192q4.139-3.4,5.294,1.778c1.226,2.024,2.432,4.047,3.6,6.091q3.526,6.132,6.7,12.489a272.989,272.989,0,0,1,11.262,25.979V130.9a178.65,178.65,0,0,0-20.358-8.2c-6.5-2.085-9.4-2.473-12.9,3.8-3.945,7.093-4.19,14.942-4.129,22.811.164,22.709,13.736,38.672,32.4,50.2v-8.83a51.969,51.969,0,0,1-43.21-2.657c.47.245-.041,6.725-.041,7.542a130.751,130.751,0,0,0,7.195,42.372v-8.83a54.648,54.648,0,0,1-23.3-23.772c1.185,2.31-1.206,6.479,0,8.83a54.536,54.536,0,0,0,23.3,23.772c-.858-.47.429-7.6,0-8.83a123.264,123.264,0,0,1-7.134-39.776c-.02,2.514-.02,5.028-.041,7.542a51.96,51.96,0,0,0,43.21,2.657c.2-.082.347-8.626,0-8.83-14.226-8.81-29.7-22.382-31.764-40.165-.634-5.457,1.778-18.049,7.869-20.44,3.986-1.574,10.016,1.942,13.695,3.291,5.151,1.9,10.2,4.068,15.187,6.357-.777-.368.429-7.706,0-8.83a265.713,265.713,0,0,0-11.262-25.979c-2.105-4.231-4.354-8.38-6.7-12.489-1.165-2.044-2.371-4.088-3.6-6.091q-1.165-5.151-5.294-1.778c-4.129.245-9.77,3.659-13.613,5.192-4.517,1.8-8.994,3.638-13.47,5.56-8.932,3.822-17.742,7.931-26.449,12.2-.307.143-.286,8.687,0,8.83a72.383,72.383,0,0,0,26.572,8.278v-8.83c-14.022,15.064-20.522,33.971-20.665,54.391-.041,6.827.041,13.613,1.329,20.358,2.432,12.652,8.973,23.608,14.472,35.1-1.124-2.432,1.165-6.479.02-8.891Z" transform="translate(-212.981 -83.247)" fill="url(#linear-gradient)"/>
  </g>
</svg>
