<svg xmlns="http://www.w3.org/2000/svg" xmlns:xlink="http://www.w3.org/1999/xlink" width="164.013" height="152.471" viewBox="0 0 164.013 152.471">
  <defs>
    <linearGradient id="linear-gradient" x1="0.078" y1="0.5" x2="1.227" y2="0.5" gradientUnits="objectBoundingBox">
      <stop offset="0" stop-color="#46efd9"/>
      <stop offset="1" stop-color="#545454"/>
    </linearGradient>
  </defs>
  <g id="Bottom_Left_Arrow" data-name="Bottom Left Arrow" transform="matrix(0.809, 0.588, -0.588, 0.809, 51.256, 0)">
    <g id="Group_177" data-name="Group 177" transform="translate(0 0)">
      <path id="Path_524" data-name="Path 524" d="M103.427,5.194c-.611,6.59,1.086,20.12-5.77,23.492,1.9-.482,3.779-.985,5.679-1.467A278.347,278.347,0,0,1,68.627,28.6c-5.906-.153-6.788-1.6-6.878-7.2-.09-4.926,1.7-11.648.294-16.376-1.765-5.977-8.259-3.109-12.648-.109-8.96,6.108-16.789,15.7-24.686,23.076L10.816,40.968C8.757,42.895,6.7,44.821,4.639,46.726c-1.018.963-2.059,1.927-3.077,2.89C-.565,50.711-.52,51.433,1.7,51.762c2.331,3.043,11.11,5.079,14.8,7.094,4.254,2.321,8.417,4.839,12.445,7.531a166.26,166.26,0,0,1,25,20.8c.2.2,5.657-1.4,5.679-1.467.453-8.385-.611-19.376,2.059-27.389-1.765.46-3.53.92-5.272,1.379,11.721-2.846,27.084-.46,39.212-.482q18.8-.033,37.605-.088a34.434,34.434,0,0,0,5.679-1.467q0-22.036-.023-44.05c0-2.8,1.109-7.619,0-10.005Q139.9-.028,135.15.924c-1.244-.175-2.512-.328-3.756-.5a87.55,87.55,0,0,0-22.695.766c-1.923.307-3.756,1.182-5.679,1.467a87.169,87.169,0,0,1,20.816-.92c1.561.131,8.3-.022,9.39,1.336.928,1.16,0,10.487,0,12.02q0,22.036.023,44.05c1.9-.482,3.779-.985,5.679-1.467q-19.855.033-39.687.088c-11.449.022-24.3-1.489-35.614.088-1.448.2-5.5.81-6.743,1.708-4.412,3.175-2.579,22.2-2.874,27.608,1.9-.482,3.779-.985,5.679-1.467A165.293,165.293,0,0,0,36.2,65.927a154.861,154.861,0,0,0-13.938-8.56c-3.394-1.861-12.694-4.4-14.8-7.094-2.217-.328-2.263-1.051-.136-2.146,1.018-.963,2.059-1.927,3.077-2.89,2.059-1.927,4.118-3.853,6.177-5.758L30.479,26.5c4.118-3.853,8.236-7.685,12.332-11.538C47.471,10.6,53.083,3.289,59.35,1.209L53.784,2.654C62.36,5.916,51.2,24.2,57.947,29.692c2.919,2.365,16.133,0,20-.131,6.471-.219,13.44.2,19.844-.876a23.21,23.21,0,0,0,5.068-1.292c7.535-3.372,5.7-16.6,6.358-23.667-.181.613-5.725.788-5.792,1.467Z" transform="translate(0 0)" fill="url(#linear-gradient)"/>
    </g>
    <g id="Group_178" data-name="Group 178" transform="translate(4.104 44.569)">
      <path id="Path_525" data-name="Path 525" d="M0,1.376c3.039,4.239,5.826,8.652,8.865,12.89.368.5,4.529-1.742,4.858-1.3C10.684,8.73,7.9,4.318,4.858.079,4.49-.444.329,1.821,0,1.376Z" transform="translate(0 0)" fill="url(#linear-gradient)"/>
    </g>
    <g id="Group_179" data-name="Group 179" transform="translate(11.323 40.002)">
      <path id="Path_526" data-name="Path 526" d="M0,1.379A291.988,291.988,0,0,1,20.69,30.934c.252.426,4.645-1.664,4.858-1.3A288.93,288.93,0,0,0,4.858.083C4.432-.459.387,1.863,0,1.379Z" transform="translate(0 0)" fill="url(#linear-gradient)"/>
    </g>
    <g id="Group_180" data-name="Group 180" transform="translate(24.36 33.216)">
      <path id="Path_527" data-name="Path 527" d="M0,1.384A140.586,140.586,0,0,1,14.419,22.268C18.29,29.2,21,36.726,25.974,42.978c.445.542,4.452-1.8,4.858-1.3-4.994-6.252-7.7-13.781-11.555-20.71A140.6,140.6,0,0,0,4.858.087C4.374-.474.407,1.887,0,1.384Z" transform="translate(0 0)" fill="url(#linear-gradient)"/>
    </g>
    <g id="Group_181" data-name="Group 181" transform="translate(38.335 17.423)">
      <path id="Path_528" data-name="Path 528" d="M0,1.359a186.983,186.983,0,0,1,18.078,38.71c.039.135,4.839-1.355,4.858-1.3A186.982,186.982,0,0,0,4.858.062C4.587-.383.232,1.727,0,1.359Z" transform="translate(0 0)" fill="url(#linear-gradient)"/>
    </g>
    <g id="Group_182" data-name="Group 182" transform="translate(47.394 5.492)">
      <path id="Path_529" data-name="Path 529" d="M0,1.325a344.063,344.063,0,0,0,24.1,44.9c.29.445,4.606-1.684,4.858-1.3A344.055,344.055,0,0,1,4.858.028C4.723-.243.1,1.538,0,1.325Z" transform="translate(0 0)" fill="url(#linear-gradient)"/>
    </g>
    <g id="Group_183" data-name="Group 183" transform="translate(70.854 30.185)">
      <path id="Path_530" data-name="Path 530" d="M0,1.358Q8.536,14.539,17.052,27.739c.29.465,4.587-1.7,4.858-1.3Q13.374,13.261,4.858.061C4.548-.384.252,1.764,0,1.358Z" transform="translate(0 0)" fill="url(#linear-gradient)"/>
    </g>
    <g id="Group_184" data-name="Group 184" transform="translate(87.212 29.7)">
      <path id="Path_531" data-name="Path 531" d="M0,1.388a156.993,156.993,0,0,1,16.936,23.69c.232.406,4.645-1.645,4.858-1.3A158.372,158.372,0,0,0,4.858.091C4.355-.489.465,1.911,0,1.388Z" transform="translate(0 0)" fill="url(#linear-gradient)"/>
    </g>
    <g id="Group_185" data-name="Group 185" transform="translate(104.425 29.005)">
      <path id="Path_532" data-name="Path 532" d="M0,1.376Q9.639,14.934,19.3,28.492c.368.5,4.529-1.742,4.858-1.3Q14.516,13.637,4.858.079C4.49-.444.31,1.821,0,1.376Z" transform="translate(0 0)" fill="url(#linear-gradient)"/>
    </g>
    <g id="Group_186" data-name="Group 186" transform="translate(107.173 20.427)">
      <path id="Path_533" data-name="Path 533" d="M0,1.4A210.513,210.513,0,0,1,24.852,30.158c.368.5,4.529-1.742,4.858-1.3A210.5,210.5,0,0,0,4.858.1C4.2-.52.581,1.977,0,1.4Z" transform="translate(0 0)" fill="url(#linear-gradient)"/>
    </g>
    <g id="Group_187" data-name="Group 187" transform="translate(110.193 4.279)">
      <path id="Path_534" data-name="Path 534" d="M0,1.4A157.833,157.833,0,0,1,24.387,32.229c.252.426,4.626-1.664,4.858-1.3A157.582,157.582,0,0,0,4.877.1C4.219-.52.581,1.977,0,1.4Z" transform="translate(0)" fill="url(#linear-gradient)"/>
    </g>
    <g id="Group_188" data-name="Group 188" transform="translate(116.154 0.558)">
      <path id="Path_535" data-name="Path 535" d="M0,1.4A80.362,80.362,0,0,1,15.852,20.756c.252.406,4.645-1.645,4.858-1.3A80.738,80.738,0,0,0,4.858.1C4.161-.534.658,1.982,0,1.4Z" transform="translate(0 0)" fill="url(#linear-gradient)"/>
    </g>
    <g id="Group_189" data-name="Group 189" transform="translate(126.18 1.138)">
      <path id="Path_536" data-name="Path 536" d="M0,1.344a45.665,45.665,0,0,0,6.387,9.31,11.871,11.871,0,0,0,2.439-.619,13.554,13.554,0,0,1,2.419-.677A45.141,45.141,0,0,1,4.858.047C4.665-.321.135,1.614,0,1.344Z" transform="translate(0 0)" fill="url(#linear-gradient)"/>
    </g>
  </g>
</svg>
