<svg xmlns="http://www.w3.org/2000/svg" xmlns:xlink="http://www.w3.org/1999/xlink" width="194.482" height="151.622" viewBox="0 0 194.482 151.622">
  <defs>
    <linearGradient id="linear-gradient" x1="0.5" x2="0.193" y2="2.173" gradientUnits="objectBoundingBox">
      <stop offset="0" stop-color="#40e6d1"/>
      <stop offset="1" stop-color="#545454"/>
    </linearGradient>
  </defs>
  <g id="Top_Right_Arrow" data-name="Top Right Arrow" transform="matrix(0.875, 0.485, -0.485, 0.875, 38.762, 0)">
    <g id="Group_149" data-name="Group 149">
      <path id="Path_497" data-name="Path 497" d="M.665,39.849c9.5-18.057,27.148-26.6,46.643-29.989,17.116-2.983,37.162-.107,47.14,15.784,10.067,16.051-7.439,32.4-21.289,38.778-11.1,5.114-46.43,15.27-47.62-6.25.107,2.734.2,5.451.3,8.185C28.062,56.2,40.7,50.414,49.475,46.951c11.949-4.741,24.929-7.12,37.57-9.073,26.935-4.155,54.243-4.687,81.462-4.528-.071,0-.142-8.771-.355-8.789-33.735-.2-67.843.639-100.868,8.2C54.127,35.783,38.52,40.222,29.092,50.591c-4.19,4.6-4.4,12.056-3.125,18.022,2.947,13.8,22.088,12.109,32.173,9.73,12.908-3.036,26.3-8.771,34.2-19.922C102.9,43.507,100.7,19.271,85.891,8.067,72.574-2.018,54.908-1.2,39.5,2.723,22.646,7.02,8.584,15.347.31,31.078c-1.19,2.255,1.509,6.552.355,8.771Z" fill="url(#linear-gradient)"/>
    </g>
    <g id="Group_150" data-name="Group 150" transform="translate(145.158 10.606)">
      <path id="Path_498" data-name="Path 498" d="M1.367,8.682,21.662,14.7c5.256,1.562,13.76,2.29,17.1,6.978-.462-2.894-.906-5.788-1.367-8.682-10.174,3.231-20.17,6.747-27.485,14.9-1.261,1.42,2.575,7.333,1.367,8.682,7.3-8.15,17.311-11.665,27.485-14.9.071-.018-.959-8.1-1.367-8.682-3.338-4.687-11.843-5.415-17.1-6.978L0,0C1.154.337.107,8.309,1.367,8.682Z" fill="url(#linear-gradient)"/>
    </g>
  </g>
</svg>
